# xmcd CD database file
#
# Track frame offsets:
#	187
#	22785
#	44937
#	62082
#	84632
#
# Disc length: 1419 seconds
#
# Revision: 1
# Processed by: cddbd v1.5PL3 Copyright (c) Steve Scherf et al.
# Submitted via: CDex 1.51
#
DISCID=3c058905
DTITLE=阿川泰子 - Chameleon
DYEAR=1900
DGENRE=Jazz
TTITLE0=Chameleon/Extended Club Mix
TTITLE1=Chameleon/Dub Mix
TTITLE2=Skindo-Le-Le
TTITLE3=More And More/Latino Mixture
TTITLE4=More And More/Cold Fusion Mix
EXTD=
EXTT0=
EXTT1=
EXTT2=
EXTT3=
EXTT4=
PLAYORDER=
